<svg width="76" height="20" viewBox="0 0 76 20" fill="none" xmlns="http://www.w3.org/2000/svg">
<path d="M0.5 19.3744V0.625618H4.97944V14.4863C4.97944 14.684 5.13949 14.8458 5.3351 14.8458H13.2964C13.4778 15.182 13.6787 15.5056 13.8939 15.8112C14.9946 17.3663 16.4492 18.5636 18.2204 19.3744H0.5Z" fill="white"/>
<path d="M24.8604 20C22.7834 20 20.854 19.6548 19.1273 18.9735L19.0082 18.9285C18.937 18.9016 18.8677 18.8746 18.7983 18.8458C17.0129 18.0872 15.5565 16.9258 14.4718 15.3924C14.2353 15.058 14.0166 14.6966 13.8263 14.3227C13.1755 13.0463 12.8447 11.5919 12.8447 10.0009C12.8447 7.96584 13.3924 6.1609 14.4718 4.6364C15.5565 3.10292 17.0129 1.93618 18.8001 1.16854C20.6033 0.393708 22.6429 0 24.8604 0C27.0779 0 29.1176 0.393708 30.9207 1.16854C32.2811 1.75281 33.4565 2.57798 34.4186 3.62067C33.0333 5.34831 32.3309 7.49303 32.3309 10.0009C32.3309 12.5088 33.0155 14.7344 34.367 16.4638C33.4139 17.4778 32.2562 18.2796 30.9225 18.8458C29.1194 19.6117 27.0797 20 24.8604 20ZM24.8604 3.92989C22.5256 3.92989 20.71 4.47101 19.4669 5.53708C18.2062 6.61933 17.566 8.12045 17.566 9.9991C17.566 11.8778 18.2062 13.3789 19.4669 14.4611C20.71 15.5272 22.5256 16.0683 24.8604 16.0683C27.1953 16.0683 29.0109 15.5272 30.2539 14.4611C31.5147 13.3789 32.1548 11.8778 32.1548 9.9991C32.1548 8.12045 31.5147 6.61933 30.2539 5.53708C29.0091 4.46921 27.1953 3.92809 24.8604 3.92809V3.92989Z" fill="white"/>
<path d="M44.199 20C40.9661 20 38.265 19.0957 36.1719 17.3106C35.7843 16.9798 35.4269 16.6202 35.1103 16.2445C33.7393 14.6103 33.044 12.5088 33.044 10.0009C33.044 7.49303 33.7553 5.48135 35.1601 3.84719C35.5051 3.44629 35.8945 3.06697 36.3142 2.72C38.5068 0.915056 41.2596 0 44.4942 0C46.7828 0 49.0021 0.284045 51.0862 0.844944C52.5391 1.23506 53.6932 1.64854 54.5289 2.07461C53.7625 2.69303 53.085 3.41213 52.516 4.21753C52.1941 4.67236 51.9113 5.15775 51.6748 5.66292C49.3595 4.51416 46.9447 3.93169 44.4942 3.93169C42.3887 3.93169 40.7083 4.4782 39.4991 5.55865C38.2774 6.64989 37.6568 8.14382 37.6568 10.0009C37.6568 11.858 38.2721 13.3771 39.4848 14.4575C40.6852 15.5272 42.4065 16.0701 44.6009 16.0701C47.7876 16.0701 49.7401 15.7016 50.5688 14.9429C50.6434 14.8746 50.6861 14.7775 50.6861 14.6769V13.3447C50.6861 13.147 50.5261 12.9852 50.3305 12.9852H46.5979V9.40764H50.7697C50.759 9.60719 50.7537 9.80674 50.7537 9.9991C50.7537 12.2049 51.3459 14.1591 52.5142 15.8094C53.1792 16.7479 53.9777 17.5622 54.8917 18.2328C52.6191 19.4049 49.0252 19.9982 44.1955 19.9982L44.199 20Z" fill="white"/>
<path d="M63.4825 20C61.2632 20 59.2236 19.6117 57.4204 18.8458C56.7678 18.569 56.1507 18.2328 55.5852 17.8463C54.6179 17.1847 53.7785 16.3596 53.0939 15.3924C52.0145 13.8679 51.4668 12.0539 51.4668 10.0009C51.4668 9.70247 51.481 9.39146 51.5059 9.08045C51.5895 8.08989 51.8135 7.15326 52.1745 6.29393C52.4199 5.70966 52.7293 5.15236 53.0939 4.6364C53.727 3.74292 54.4987 2.96449 55.3878 2.3209C56.0156 1.86607 56.7002 1.47955 57.4222 1.16854C59.2253 0.393708 61.265 0 63.4825 0C65.7 0 67.7397 0.393708 69.5428 1.16854C71.3282 1.93618 72.7846 3.10292 73.8711 4.6364C74.9523 6.1609 75.5 7.96584 75.5 10.0009C75.5 12.036 74.9523 13.8679 73.8711 15.3924C72.7864 16.9258 71.33 18.0872 69.5446 18.8458C67.7414 19.6117 65.7018 20 63.4825 20ZM63.4825 3.92989C61.1476 3.92989 59.332 4.47101 58.089 5.53708C56.8282 6.61933 56.1881 8.12045 56.1881 9.9991C56.1881 11.8778 56.8282 13.3789 58.089 14.4611C59.332 15.5272 61.1476 16.0683 63.4825 16.0683C65.8174 16.0683 67.633 15.5272 68.876 14.4593C70.1368 13.3771 70.7769 11.876 70.7769 9.9973C70.7769 8.11865 70.1368 6.61753 68.876 5.53528C67.6312 4.46742 65.8174 3.92629 63.4825 3.92629V3.92989Z" fill="white"/>
</svg>
