<svg width="22" height="22" viewBox="0 0 22 22" fill="none" xmlns="http://www.w3.org/2000/svg">
<path d="M15.0421 7.46302C16.6501 7.46302 18.1923 8.10181 19.3293 9.23887C20.4664 10.3759 21.1052 11.9181 21.1052 13.5261V20.5998H17.0631V13.5261C17.0631 12.9901 16.8502 12.4761 16.4711 12.0971C16.0921 11.718 15.5781 11.5051 15.0421 11.5051C14.506 11.5051 13.992 11.718 13.613 12.0971C13.2339 12.4761 13.021 12.9901 13.021 13.5261V20.5998H8.97893V13.5261C8.97893 11.9181 9.61772 10.3759 10.7548 9.23887C11.8918 8.10181 13.434 7.46302 15.0421 7.46302Z" stroke="#2292FA" stroke-width="1.59999" stroke-linecap="round" stroke-linejoin="round"/>
<path d="M4.93685 8.47354H0.894775V20.5998H4.93685V8.47354Z" stroke="#2292FA" stroke-width="1.59999" stroke-linecap="round" stroke-linejoin="round"/>
<path d="M2.91581 5.44198C4.032 5.44198 4.93685 4.53713 4.93685 3.42094C4.93685 2.30475 4.032 1.3999 2.91581 1.3999C1.79963 1.3999 0.894775 2.30475 0.894775 3.42094C0.894775 4.53713 1.79963 5.44198 2.91581 5.44198Z" stroke="#2292FA" stroke-width="1.59999" stroke-linecap="round" stroke-linejoin="round"/>
</svg>
