<svg width="16" height="16" viewBox="0 0 16 16" fill="none" xmlns="http://www.w3.org/2000/svg">
<path fill-rule="evenodd" clip-rule="evenodd" d="M9.0091 6.0086L14.2103 0.496094H15.9345L15.9271 0.504232L9.77553 7.02593L15.4076 14.5011C15.5507 14.691 15.5741 14.9455 15.468 15.1584C15.3687 15.3576 15.1719 15.4881 14.9522 15.504H11.4253C11.2455 15.491 11.0792 15.401 10.9698 15.2559L7.00664 9.99571L1.83579 15.504H0.0656738L6.2402 8.97836L0.608146 1.50321C0.465047 1.31329 0.441678 1.05877 0.547794 0.845964C0.653903 0.63315 0.871249 0.498661 1.10904 0.498661H4.545C4.74192 0.498661 4.9274 0.591151 5.0459 0.748429L9.0091 6.0086ZM8.48122 7.39243C8.46344 7.37174 8.44724 7.35015 8.43257 7.32779L4.23228 1.75298H2.3668L11.7835 14.2514H13.649L8.48122 7.39243Z" fill="#2292FA"/>
</svg>
