<svg width="30" height="26" viewBox="0 0 30 26" fill="none" xmlns="http://www.w3.org/2000/svg">
<path d="M0.365624 13.8846L11.6156 25.1346C11.8502 25.3691 12.1683 25.5009 12.5 25.5009C12.8317 25.5009 13.1498 25.3691 13.3844 25.1346C13.6189 24.9 13.7507 24.5819 13.7507 24.2502C13.7507 23.9185 13.6189 23.6004 13.3844 23.3658L4.26719 14.2502H28.75C29.0815 14.2502 29.3995 14.1185 29.6339 13.8841C29.8683 13.6497 30 13.3317 30 13.0002C30 12.6687 29.8683 12.3507 29.6339 12.1163C29.3995 11.8819 29.0815 11.7502 28.75 11.7502H4.26719L13.3844 2.63458C13.6189 2.40003 13.7507 2.08191 13.7507 1.75021C13.7507 1.4185 13.6189 1.10038 13.3844 0.865832C13.1498 0.631281 12.8317 0.499512 12.5 0.499512C12.1683 0.499512 11.8502 0.631281 11.6156 0.865832L0.365624 12.1158C0.249404 12.2319 0.157205 12.3698 0.0942993 12.5215C0.031394 12.6733 -0.000982285 12.8359 -0.000982285 13.0002C-0.000982285 13.1645 0.031394 13.3271 0.0942993 13.4789C0.157205 13.6306 0.249404 13.7685 0.365624 13.8846Z" fill="#303030"/>
</svg>
