<svg width="30" height="26" viewBox="0 0 30 26" fill="none" xmlns="http://www.w3.org/2000/svg">
<path d="M29.6344 13.8846L18.3844 25.1346C18.1498 25.3691 17.8317 25.5009 17.5 25.5009C17.1683 25.5009 16.8502 25.3691 16.6156 25.1346C16.3811 24.9 16.2493 24.5819 16.2493 24.2502C16.2493 23.9185 16.3811 23.6004 16.6156 23.3658L25.7328 14.2502H1.25C0.918479 14.2502 0.600537 14.1185 0.366117 13.8841C0.131696 13.6497 0 13.3317 0 13.0002C0 12.6687 0.131696 12.3507 0.366117 12.1163C0.600537 11.8819 0.918479 11.7502 1.25 11.7502H25.7328L16.6156 2.63458C16.3811 2.40003 16.2493 2.08191 16.2493 1.75021C16.2493 1.4185 16.3811 1.10038 16.6156 0.865832C16.8502 0.631281 17.1683 0.499512 17.5 0.499512C17.8317 0.499512 18.1498 0.631281 18.3844 0.865832L29.6344 12.1158C29.7506 12.2319 29.8428 12.3698 29.9057 12.5215C29.9686 12.6733 30.001 12.8359 30.001 13.0002C30.001 13.1645 29.9686 13.3271 29.9057 13.4789C29.8428 13.6306 29.7506 13.7685 29.6344 13.8846Z" fill="#303030"/>
</svg>
